<?xml version="1.0" encoding="UTF-8" ?>
<!DOCTYPE svg PUBLIC "-//W3C//DTD SVG 1.1//EN" "http://www.w3.org/Graphics/SVG/1.1/DTD/svg11.dtd">
<svg width="1073pt" height="847pt" viewBox="0 0 1073 847" version="1.1" xmlns="http://www.w3.org/2000/svg">
<g id="#ffffffff">
<path fill="#ffffff" opacity="1.00" d=" M 522.48 0.00 L 548.46 0.00 C 557.15 0.67 565.84 1.56 574.51 2.56 C 645.76 10.28 713.93 41.99 766.71 90.30 C 802.25 122.83 830.18 163.21 849.93 207.05 C 891.39 297.56 886.45 405.76 844.02 495.01 C 827.69 529.35 804.96 560.36 779.18 588.19 C 747.28 620.15 710.79 648.35 668.98 666.06 C 662.16 669.26 653.01 667.93 648.40 661.63 C 641.35 653.74 645.26 639.82 654.92 635.92 C 683.97 622.65 711.13 605.26 734.99 583.99 C 794.83 532.26 834.53 457.60 842.81 378.84 C 844.95 355.94 844.42 332.81 842.12 309.94 C 838.80 277.56 828.61 246.27 815.31 216.70 C 800.07 183.64 779.58 152.93 754.18 126.82 C 725.46 98.84 691.96 75.51 654.82 60.20 C 616.06 44.07 574.10 34.70 531.99 35.87 C 462.66 36.26 393.66 60.92 340.28 105.28 C 271.09 161.33 227.45 248.66 227.04 337.99 C 226.25 382.69 234.49 427.63 252.31 468.70 C 283.97 541.41 343.54 602.14 416.66 633.33 C 422.10 636.03 428.71 639.10 430.63 645.41 C 434.79 655.05 427.38 667.25 416.93 667.87 C 405.53 666.83 395.09 661.69 384.71 657.26 C 353.32 642.18 324.85 621.33 300.15 596.85 C 234.60 534.55 194.44 446.00 191.38 355.57 C 190.30 314.65 195.73 273.27 209.64 234.67 C 240.30 144.18 311.16 69.14 397.85 29.85 C 437.04 12.08 479.59 2.52 522.48 0.00 Z" />
<path fill="#ffffff" opacity="1.00" d=" M 533.42 112.61 C 541.57 111.81 551.29 115.18 555.05 122.96 C 559.91 129.62 558.66 138.26 559.08 145.99 C 558.86 294.34 559.12 442.70 558.95 591.05 C 558.51 599.80 553.60 608.94 545.02 612.05 C 535.50 616.28 523.31 613.28 517.04 604.93 C 511.98 598.91 512.36 590.38 511.99 583.03 C 511.95 436.35 512.11 289.66 511.91 142.98 C 511.74 136.17 512.54 129.01 516.09 123.04 C 519.75 117.02 526.41 113.08 533.42 112.61 Z" />
<path fill="#ffffff" opacity="1.00" d=" M 457.43 198.46 C 463.32 197.40 468.99 200.04 473.68 203.32 C 479.91 208.58 481.52 217.22 481.00 224.97 C 481.06 318.32 480.91 411.67 481.07 505.02 C 481.15 511.46 481.27 518.57 476.72 523.74 C 469.21 534.42 451.35 535.10 443.28 524.74 C 437.55 518.81 438.30 509.61 437.93 502.03 C 438.04 410.34 438.06 318.66 437.92 226.98 C 437.88 219.40 438.46 210.75 443.91 204.91 C 447.56 201.43 452.36 198.89 457.43 198.46 Z" />
<path fill="#ffffff" opacity="1.00" d=" M 609.43 198.47 C 619.59 197.09 630.89 204.12 632.38 214.63 C 633.40 224.72 633.02 234.88 633.06 245.00 C 632.86 333.34 633.14 421.69 632.94 510.03 C 633.95 521.50 623.59 532.65 611.96 531.92 C 599.52 533.33 589.25 520.90 590.20 508.98 C 589.64 417.33 590.29 325.65 589.89 233.99 C 590.09 225.87 589.45 217.34 592.66 209.67 C 595.86 203.46 602.50 199.11 609.43 198.47 Z" />
<path fill="#ffffff" opacity="1.00" d=" M 382.42 270.43 C 393.86 267.60 406.56 277.21 406.64 289.11 C 407.46 339.06 406.87 389.06 406.92 439.02 C 408.10 449.92 399.49 460.84 388.40 461.43 C 381.19 462.62 373.88 459.17 369.24 453.77 C 363.91 447.38 365.27 438.67 364.91 431.01 C 365.18 384.33 364.79 337.64 365.07 290.96 C 364.42 280.98 372.71 271.78 382.42 270.43 Z" />
<path fill="#ffffff" opacity="1.00" d=" M 681.44 270.51 C 691.35 267.94 701.86 274.05 705.81 283.12 C 708.48 292.48 707.77 302.37 708.07 312.00 C 707.75 355.23 708.51 398.47 707.45 441.69 C 707.01 453.71 695.09 463.08 683.34 461.58 C 675.24 460.51 667.49 454.56 665.67 446.36 C 664.77 439.61 664.95 432.78 664.90 426.00 C 665.09 384.33 665.02 342.66 664.91 300.99 C 665.42 294.00 663.91 286.21 668.03 280.02 C 671.13 275.42 675.76 271.30 681.44 270.51 Z" />
<path fill="#ffffff" opacity="1.00" d=" M 308.44 319.50 C 318.33 316.27 329.67 322.93 332.32 332.64 C 333.83 351.05 332.77 369.57 333.12 388.03 C 334.64 398.36 327.11 409.57 316.40 410.46 C 305.60 412.68 293.75 403.80 293.51 392.61 C 292.51 374.47 292.61 356.25 293.36 338.10 C 293.35 329.47 299.81 320.98 308.44 319.50 Z" />
<path fill="#ffffff" opacity="1.00" d=" M 753.43 319.49 C 763.36 316.39 774.75 322.75 777.31 332.65 C 778.79 347.71 777.75 362.88 778.13 378.00 C 777.59 385.97 779.90 394.92 774.99 401.99 C 769.10 411.33 754.83 413.91 746.26 406.73 C 740.29 402.55 737.98 394.98 738.17 387.98 C 737.78 371.10 737.64 354.18 738.64 337.32 C 738.93 329.12 745.20 320.91 753.43 319.49 Z" />
<path fill="#ffffff" opacity="1.00" d=" M 17.98 712.98 C 26.06 709.26 35.11 707.76 43.98 707.91 C 67.32 707.81 90.66 708.10 114.00 708.01 C 113.99 714.99 113.99 721.99 114.01 728.99 C 89.13 729.39 64.22 728.16 39.37 729.48 C 32.18 729.48 25.09 733.93 22.72 740.81 C 20.91 748.45 21.62 758.46 29.62 762.39 C 40.97 766.10 53.20 765.52 65.01 766.03 C 79.21 766.54 94.99 766.04 106.95 775.09 C 116.17 781.11 118.88 792.81 119.86 803.03 C 119.57 814.15 117.71 826.26 109.50 834.51 C 101.88 842.45 90.54 844.80 80.02 845.94 C 54.68 846.39 29.34 845.81 4.00 845.99 C 4.01 838.98 4.01 831.99 3.99 825.01 C 27.34 824.74 50.70 825.48 74.04 824.88 C 79.62 824.18 86.19 824.56 90.83 820.83 C 97.53 814.62 98.94 803.41 94.39 795.59 C 86.29 785.55 72.32 787.56 61.00 786.87 C 44.83 785.85 26.80 787.86 12.60 778.44 C 5.73 773.28 1.98 764.85 0.00 756.69 L 0.00 738.53 C 2.54 728.25 8.02 717.73 17.98 712.98 Z" />
<path fill="#ffffff" opacity="1.00" d=" M 553.00 708.01 C 559.99 708.00 566.98 707.99 573.99 708.00 C 574.01 753.99 574.01 799.99 573.99 845.99 C 553.99 845.83 533.98 846.38 513.98 845.87 C 504.31 845.39 494.61 842.19 487.23 835.78 C 480.57 829.01 476.95 819.83 475.55 810.57 C 474.51 798.41 473.69 785.38 479.01 774.01 C 482.98 763.73 491.99 755.16 503.00 753.11 C 519.44 749.69 536.62 750.32 553.05 753.53 C 552.92 738.35 553.06 723.18 553.00 708.01 M 515.58 771.61 C 507.50 772.31 500.00 778.13 497.97 786.06 C 496.25 793.39 496.80 801.12 497.53 808.57 C 498.72 816.59 505.34 823.36 513.42 824.43 C 526.57 825.62 539.80 824.92 552.99 824.98 C 553.01 806.99 553.05 789.00 552.98 771.02 C 540.51 771.07 527.99 770.34 515.58 771.61 Z" />
<path fill="#ffffff" opacity="1.00" d=" M 598.69 707.97 C 606.09 707.99 613.49 708.00 620.91 708.04 C 638.84 730.94 656.49 754.04 674.21 777.11 C 691.89 754.12 709.49 731.07 727.08 708.01 C 734.71 708.03 742.35 708.04 750.00 707.98 C 750.00 753.99 750.01 800.01 749.99 846.02 C 742.32 845.96 734.66 845.97 727.00 846.01 C 726.86 811.89 727.25 777.77 726.82 743.66 C 708.66 765.79 691.73 788.89 674.30 811.59 C 656.20 789.26 639.64 765.70 621.25 743.61 C 620.67 777.77 621.17 811.93 620.99 846.09 C 613.66 846.01 606.33 846.32 599.03 845.87 C 598.57 799.98 599.56 753.92 598.69 707.97 Z" />
<path fill="#ffffff" opacity="1.00" d=" M 983.02 708.00 C 989.99 708.00 996.98 708.00 1003.98 707.99 C 1004.16 736.51 1003.65 765.04 1004.32 793.56 C 1013.95 783.44 1023.92 773.66 1033.63 763.63 C 1037.65 759.69 1041.51 755.42 1046.37 752.48 C 1054.79 751.60 1063.28 752.04 1071.76 752.20 C 1057.60 767.66 1042.15 781.85 1027.66 796.99 C 1042.37 813.53 1058.15 829.08 1073.00 845.49 L 1073.00 846.21 C 1064.20 846.07 1055.37 846.38 1046.65 845.19 C 1044.67 844.41 1043.24 842.68 1041.78 841.24 C 1029.51 828.08 1017.22 814.92 1004.28 802.42 C 1003.94 816.94 1003.94 831.47 1003.96 846.00 C 996.96 845.98 989.98 845.98 983.01 846.02 C 982.98 800.01 982.98 754.00 983.02 708.00 Z" />
<path fill="#ffffff" opacity="1.00" d=" M 149.76 760.76 C 162.53 749.39 181.07 750.35 196.96 751.19 C 209.30 751.79 222.66 756.50 229.58 767.39 C 237.89 779.96 237.64 795.80 236.35 810.21 C 234.84 819.90 231.81 830.39 223.70 836.68 C 217.18 842.92 208.17 845.01 199.68 847.00 L 173.41 847.00 C 164.49 844.71 154.96 842.56 148.25 835.73 C 137.97 825.00 135.52 809.34 136.11 795.05 C 136.52 782.60 139.67 769.03 149.76 760.76 M 175.44 771.59 C 165.69 772.37 158.94 781.80 157.98 790.98 C 157.52 801.50 157.00 813.79 165.16 821.81 C 175.54 828.74 188.94 827.80 200.63 825.63 C 209.27 823.74 214.54 814.74 215.47 806.42 C 216.58 795.96 216.72 783.50 208.26 775.76 C 198.82 768.61 186.35 770.83 175.44 771.59 Z" />
<path fill="#ffffff" opacity="1.00" d=" M 256.01 751.99 C 263.00 751.99 269.99 751.99 276.99 752.00 C 277.25 771.99 276.50 792.00 277.21 811.99 C 277.63 817.61 281.46 823.66 287.40 824.48 C 299.55 825.54 312.02 825.86 324.00 823.19 C 324.02 799.46 323.97 775.73 324.01 752.01 C 331.00 752.00 337.99 751.99 344.99 752.00 C 345.02 783.39 345.01 814.79 345.00 846.19 C 338.70 846.18 332.42 845.94 326.16 845.49 C 325.70 844.17 324.79 841.53 324.34 840.21 C 318.42 843.57 311.86 845.89 304.98 845.91 C 293.03 846.10 279.79 847.32 269.08 840.83 C 261.75 836.38 257.20 828.07 256.54 819.60 C 255.17 797.09 256.35 774.52 256.01 751.99 Z" />
<path fill="#ffffff" opacity="1.00" d=" M 367.00 752.01 C 386.87 752.25 406.77 751.31 426.62 752.44 C 433.54 753.27 441.18 754.45 446.28 759.71 C 453.28 765.57 456.02 775.10 455.93 783.96 C 456.37 804.68 455.82 825.41 455.99 846.15 C 449.39 846.17 442.79 846.06 436.20 845.82 C 435.78 845.13 435.57 844.39 435.57 843.61 C 435.76 823.28 436.95 802.83 434.40 782.61 C 433.50 776.70 427.63 773.48 422.19 772.69 C 413.49 771.66 404.70 771.73 395.97 771.82 C 394.13 773.17 389.64 770.53 388.34 773.37 C 387.32 797.56 388.37 821.79 387.99 846.01 C 380.99 845.98 374.00 845.98 367.01 846.00 C 366.97 814.67 366.99 783.34 367.00 752.01 Z" />
<path fill="#ffffff" opacity="1.00" d=" M 903.85 752.75 C 922.51 751.10 941.28 752.29 960.00 752.03 C 959.97 758.33 960.01 764.68 959.99 771.01 C 941.79 771.29 923.55 770.23 905.39 771.50 C 898.00 773.18 897.85 785.69 904.94 788.06 C 920.01 790.96 936.29 786.08 950.87 792.12 C 968.85 798.72 970.93 824.82 958.80 837.81 C 953.78 842.35 947.30 844.89 940.59 845.41 C 921.09 846.83 901.52 845.70 882.00 845.99 C 881.98 839.64 881.98 833.33 882.00 827.00 C 900.89 826.67 919.83 827.71 938.70 826.63 C 947.48 825.72 948.23 811.24 939.95 809.03 C 923.20 805.76 904.15 812.01 888.95 802.03 C 879.52 794.53 877.48 780.87 880.80 769.87 C 883.75 759.90 893.75 753.35 903.85 752.75 Z" />
<path fill="#ffffff" opacity="1.00" d=" M 777.73 753.03 C 796.01 753.21 814.33 752.22 832.59 753.58 C 841.72 754.54 851.29 758.68 855.94 767.04 C 860.64 774.07 860.71 782.84 860.97 790.98 C 861.28 809.31 860.87 827.64 860.98 845.99 C 842.64 845.89 824.31 846.20 805.98 846.03 C 798.17 845.84 789.84 845.91 782.72 842.24 C 766.38 834.60 764.67 809.87 776.70 797.71 C 782.48 792.93 790.08 791.22 797.38 790.43 C 811.77 789.52 826.22 790.06 840.64 789.99 C 840.01 785.12 839.95 779.46 836.34 775.66 C 831.94 771.63 825.60 771.40 819.99 771.14 C 805.77 770.69 791.54 771.04 777.33 771.00 C 777.75 765.01 777.77 759.02 777.73 753.03 M 797.06 808.05 C 787.76 810.12 788.15 825.84 798.15 826.70 C 812.05 827.76 826.05 826.76 840.00 826.95 C 839.99 820.30 839.99 813.66 839.99 807.02 C 825.70 807.35 811.21 805.79 797.06 808.05 Z" />
</g>
</svg>
